<svg
    xmlns="http://www.w3.org/2000/svg" width="100%" viewBox="0 0 155 40" fill="none" class="navbar-logo_icon">
    <path d="M134.139 28.3327C134.106 28.4279 134.016 28.492 133.914 28.492H128.305C128.209 28.492 128.122 28.4346 128.086 28.3466L121.211 11.8324C121.147 11.6778 121.261 11.5083 121.43 11.5083H126.779C126.879 11.5083 126.968 11.569 127.002 11.6606L131.141 22.5669C131.221 22.775 131.521 22.7682 131.59 22.5569L135.162 11.6707C135.194 11.5739 135.285 11.5083 135.389 11.5083H140.777C140.878 11.5083 140.968 11.5722 141.001 11.6671L144.661 22.2367C144.732 22.4449 145.029 22.4496 145.108 22.2438L149.159 11.66C149.195 11.5688 149.283 11.5083 149.382 11.5083H154.156C154.325 11.5083 154.44 11.6768 154.377 11.8311L147.614 28.3453C147.578 28.434 147.491 28.492 147.394 28.492H142.291C142.192 28.492 142.102 28.4299 142.068 28.3366L138.218 17.7563C138.143 17.5471 137.843 17.5498 137.77 17.7602L134.139 28.3327Z" fill="currentColor"></path>
    <path d="M108.588 11.2119H109.581C120.395 11.2119 121.665 16.5763 121.665 19.6125V20.2973C121.665 23.2877 120.418 28.7891 109.581 28.7891H108.588C97.7054 28.7891 96.4812 23.2877 96.4812 20.2973V19.6125C96.4812 16.5763 97.7054 11.2119 108.588 11.2119ZM116.028 20.0918V19.7723C116.028 17.8319 114.895 15.3208 109.073 15.3208C103.158 15.3208 102.119 17.8319 102.119 19.7723V20.0462C102.119 21.9865 103.251 24.6573 109.073 24.6573C114.85 24.6573 116.028 22.055 116.028 20.0918Z" fill="currentColor"></path>
    <path d="M73.719 28.492C73.5886 28.492 73.4814 28.3869 73.4814 28.2573V11.7431C73.4814 11.6134 73.5886 11.5083 73.719 11.5083H88.1996C93.1215 11.5083 94.4845 13.3802 94.4845 15.389V15.7086C94.4845 17.3644 93.4252 18.2543 92.543 18.703C92.3287 18.8116 92.3408 19.1892 92.5644 19.2771C93.8165 19.7701 95.4544 20.8752 95.4544 23.2874V23.607C95.4544 26.2778 93.9069 28.492 88.3384 28.492H73.719ZM87.2754 15.0923H79.103C78.9716 15.0923 78.8654 15.1974 78.8654 15.327V17.6197C78.8654 17.7493 78.9716 17.8544 79.103 17.8544H87.2754C88.7772 17.8544 89.1471 17.1696 89.1471 16.4847V16.4391C89.1471 15.7314 88.7772 15.0923 87.2754 15.0923ZM87.7375 21.4611H79.103C78.9716 21.4611 78.8654 21.5662 78.8654 21.6959V24.5592C78.8654 24.6889 78.9716 24.794 79.103 24.794H87.7375C89.517 24.794 89.8635 23.8124 89.8635 23.1276V23.0363C89.8635 22.3058 89.517 21.4611 87.7375 21.4611Z" fill="currentColor"></path>
    <path d="M55.214 28.4214C55.1693 28.4666 55.1081 28.492 55.0442 28.492H49.0802C48.8693 28.492 48.7629 28.241 48.9108 28.0926L56.8979 20.0735C56.9888 19.9821 56.9889 19.8356 56.8979 19.7442L49.0954 11.9077C48.9477 11.7593 49.0541 11.5083 49.2648 11.5083H55.8055C55.8701 11.5083 55.9319 11.5343 55.9767 11.5802L60.5874 16.3092C60.6806 16.405 60.8362 16.405 60.9302 16.3092L65.541 11.5802C65.5857 11.5343 65.6472 11.5083 65.7115 11.5083H71.6516C71.8622 11.5083 71.9693 11.7592 71.8212 11.9077L64.1323 19.6322C64.0419 19.7227 64.041 19.8676 64.1295 19.9593L72.0187 28.0948C72.1631 28.2441 72.056 28.492 71.8473 28.492H65.7329C65.6695 28.492 65.609 28.4669 65.5643 28.4221L60.5362 23.3889C60.4421 23.2955 60.2893 23.2959 60.197 23.3896L55.214 28.4214Z" fill="currentColor"></path>
    <path d="M0 19.0444C0 18.7361 0.252981 18.4862 0.565052 18.4862H10.6136C11.1237 18.4862 11.3727 17.8713 11.0034 17.5237L7.05742 13.8096C6.82634 13.5922 6.82329 13.2289 7.05066 13.0077L8.34086 11.7523C8.56197 11.5371 8.91739 11.5385 9.13689 11.7553L17.0812 19.6042C17.3019 19.8222 17.3019 20.1757 17.0812 20.3937L9.13689 28.2426C8.91739 28.4594 8.56197 28.4608 8.34086 28.2455L7.05066 26.9902C6.82329 26.769 6.82634 26.4057 7.05736 26.1883L11.0034 22.4742C11.3727 22.1266 11.1237 21.5117 10.6136 21.5117H0.565052C0.252981 21.5117 0 21.2618 0 20.9535V19.0444Z" fill="currentColor"></path>
    <path d="M40.4876 20.9534C40.4876 21.2617 40.2347 21.5117 39.9226 21.5117H29.874C29.364 21.5117 29.1149 22.1266 29.4843 22.4742L33.4303 26.1882C33.6613 26.4057 33.6644 26.7689 33.437 26.9902L32.1468 28.2456C31.9256 28.4607 31.5702 28.4594 31.3508 28.2426L23.4065 20.3937C23.1858 20.1757 23.1858 19.8222 23.4065 19.6042L31.3508 11.7553C31.5702 11.5385 31.9256 11.5371 32.1468 11.7523L33.437 13.0077C33.6644 13.2289 33.6613 13.5922 33.4303 13.8097L29.4843 17.5237C29.1149 17.8713 29.364 18.4862 29.874 18.4862H39.9226C40.2347 18.4862 40.4876 18.7361 40.4876 19.0444V20.9534Z" fill="currentColor"></path>
    <path d="M21.2091 0C21.5212 0 21.7741 0.249943 21.7741 0.558261V10.4862C21.7741 10.9901 22.3965 11.2361 22.7483 10.8712L26.5076 6.97262C26.7277 6.74432 27.0953 6.74131 27.3192 6.96594L28.5899 8.24065C28.8077 8.45915 28.8063 8.81031 28.5868 9.02712L20.6426 16.876C20.4219 17.094 20.0641 17.094 19.8434 16.876L11.8991 9.02712C11.6797 8.81031 11.6783 8.45915 11.8961 8.24065L13.1667 6.96594C13.3907 6.74131 13.7583 6.74432 13.9784 6.97262L17.7376 10.8712C18.0895 11.2361 18.7119 10.9901 18.7119 10.4862V0.558261C18.7119 0.249943 18.9648 0 19.2769 0H21.2091Z" fill="currentColor"></path>
    <path d="M19.2776 40C18.9656 40 18.7126 39.75 18.7126 39.4417V29.5138C18.7126 29.0098 18.0902 28.7639 17.7384 29.1287L13.9792 33.0273C13.7591 33.2556 13.3914 33.2586 13.1675 33.034L11.8968 31.7593C11.6791 31.5408 11.6804 31.1897 11.8999 30.9728L19.8442 23.124C20.0649 22.9059 20.4226 22.9059 20.6433 23.124L28.5876 30.9728C28.8071 31.1897 28.8084 31.5408 28.5906 31.7593L27.32 33.034C27.0961 33.2586 26.7284 33.2556 26.5083 33.0273L22.7491 29.1287C22.3972 28.7639 21.7749 29.0098 21.7749 29.5138V39.4417C21.7749 39.75 21.5219 40 21.2098 40H19.2776Z" fill="currentColor"></path>
</svg>